<mxfile host="app.diagrams.net" agent="Mozilla/5.0 (Macintosh; Intel Mac OS X 10_15_7) AppleWebKit/537.36 (KHTML, like Gecko) Chrome/131.0.0.0 Safari/537.36" version="26.0.11">
  <diagram name="第 1 页" id="a4SjvuLSRBOrl4tF5w26">
    <mxGraphModel dx="1242" dy="785" grid="0" gridSize="10" guides="1" tooltips="1" connect="1" arrows="1" fold="1" page="1" pageScale="1" pageWidth="827" pageHeight="1169" math="0" shadow="0">
      <root>
        <mxCell id="0" />
        <mxCell id="1" parent="0" />
        <mxCell id="4Y7Xm-b25FJb2aI7x2md-1" value="用户" style="shape=umlActor;verticalLabelPosition=bottom;verticalAlign=top;html=1;" vertex="1" parent="1">
          <mxGeometry x="115" y="355" width="30" height="60" as="geometry" />
        </mxCell>
        <mxCell id="4Y7Xm-b25FJb2aI7x2md-2" value="" style="rounded=0;whiteSpace=wrap;html=1;" vertex="1" parent="1">
          <mxGeometry x="213" y="65" width="394" height="644" as="geometry" />
        </mxCell>
        <mxCell id="4Y7Xm-b25FJb2aI7x2md-3" value="自动化协作模块" style="text;html=1;align=center;verticalAlign=middle;whiteSpace=wrap;rounded=0;" vertex="1" parent="1">
          <mxGeometry x="364" y="65" width="99" height="30" as="geometry" />
        </mxCell>
        <mxCell id="4Y7Xm-b25FJb2aI7x2md-5" value="编辑自动化规则" style="ellipse;whiteSpace=wrap;html=1;" vertex="1" parent="1">
          <mxGeometry x="242" y="277" width="100" height="50" as="geometry" />
        </mxCell>
        <mxCell id="4Y7Xm-b25FJb2aI7x2md-6" value="" style="ellipse;whiteSpace=wrap;html=1;" vertex="1" parent="1">
          <mxGeometry x="242" y="597" width="100" height="50" as="geometry" />
        </mxCell>
        <mxCell id="4Y7Xm-b25FJb2aI7x2md-7" value="" style="endArrow=none;html=1;rounded=0;exitX=1;exitY=0.3333333333333333;exitDx=0;exitDy=0;exitPerimeter=0;entryX=0;entryY=0.5;entryDx=0;entryDy=0;" edge="1" parent="1" source="4Y7Xm-b25FJb2aI7x2md-1" target="4Y7Xm-b25FJb2aI7x2md-5">
          <mxGeometry width="50" height="50" relative="1" as="geometry">
            <mxPoint x="142" y="385" as="sourcePoint" />
            <mxPoint x="224" y="370" as="targetPoint" />
          </mxGeometry>
        </mxCell>
        <mxCell id="4Y7Xm-b25FJb2aI7x2md-9" value="" style="endArrow=none;html=1;rounded=0;exitX=1;exitY=0.3333333333333333;exitDx=0;exitDy=0;exitPerimeter=0;entryX=0;entryY=0.5;entryDx=0;entryDy=0;" edge="1" parent="1" source="4Y7Xm-b25FJb2aI7x2md-1" target="4Y7Xm-b25FJb2aI7x2md-6">
          <mxGeometry width="50" height="50" relative="1" as="geometry">
            <mxPoint x="142" y="385" as="sourcePoint" />
            <mxPoint x="252" y="289" as="targetPoint" />
          </mxGeometry>
        </mxCell>
        <mxCell id="4Y7Xm-b25FJb2aI7x2md-10" value="新增自动化规则" style="ellipse;whiteSpace=wrap;html=1;" vertex="1" parent="1">
          <mxGeometry x="242" y="118" width="100" height="50" as="geometry" />
        </mxCell>
        <mxCell id="4Y7Xm-b25FJb2aI7x2md-11" value="删除自动化规则" style="ellipse;whiteSpace=wrap;html=1;" vertex="1" parent="1">
          <mxGeometry x="242" y="518" width="100" height="50" as="geometry" />
        </mxCell>
        <mxCell id="4Y7Xm-b25FJb2aI7x2md-12" value="复制自动化规则" style="ellipse;whiteSpace=wrap;html=1;" vertex="1" parent="1">
          <mxGeometry x="242" y="438" width="100" height="50" as="geometry" />
        </mxCell>
        <mxCell id="4Y7Xm-b25FJb2aI7x2md-26" value="" style="endArrow=none;html=1;rounded=0;exitX=1;exitY=0.3333333333333333;exitDx=0;exitDy=0;exitPerimeter=0;entryX=0;entryY=0.5;entryDx=0;entryDy=0;" edge="1" parent="1" source="4Y7Xm-b25FJb2aI7x2md-1" target="4Y7Xm-b25FJb2aI7x2md-11">
          <mxGeometry width="50" height="50" relative="1" as="geometry">
            <mxPoint x="155" y="385" as="sourcePoint" />
            <mxPoint x="252" y="632" as="targetPoint" />
          </mxGeometry>
        </mxCell>
        <mxCell id="4Y7Xm-b25FJb2aI7x2md-27" value="" style="endArrow=none;html=1;rounded=0;exitX=1;exitY=0.3333333333333333;exitDx=0;exitDy=0;exitPerimeter=0;entryX=0;entryY=0.5;entryDx=0;entryDy=0;" edge="1" parent="1" source="4Y7Xm-b25FJb2aI7x2md-1" target="4Y7Xm-b25FJb2aI7x2md-12">
          <mxGeometry width="50" height="50" relative="1" as="geometry">
            <mxPoint x="155" y="385" as="sourcePoint" />
            <mxPoint x="252" y="553" as="targetPoint" />
          </mxGeometry>
        </mxCell>
        <mxCell id="4Y7Xm-b25FJb2aI7x2md-28" value="" style="endArrow=none;html=1;rounded=0;entryX=0;entryY=0.5;entryDx=0;entryDy=0;exitX=1;exitY=0.3333333333333333;exitDx=0;exitDy=0;exitPerimeter=0;" edge="1" parent="1" source="4Y7Xm-b25FJb2aI7x2md-1" target="4Y7Xm-b25FJb2aI7x2md-10">
          <mxGeometry width="50" height="50" relative="1" as="geometry">
            <mxPoint x="146" y="375" as="sourcePoint" />
            <mxPoint x="252" y="473" as="targetPoint" />
          </mxGeometry>
        </mxCell>
      </root>
    </mxGraphModel>
  </diagram>
</mxfile>
